<svg width="25" height="22" viewBox="0 0 25 22" fill="none" xmlns="http://www.w3.org/2000/svg">
    <path d="M4.5769 12.94V21.19H10.5769V15.19C10.5769 14.7922 10.7349 14.4106 11.0162 14.1293C11.2975 13.848 11.6791 13.69 12.0769 13.69H13.5769C13.9747 13.69 14.3563 13.848 14.6376 14.1293C14.9189 14.4106 15.0769 14.7922 15.0769 15.19V21.19H21.0769V12.94" stroke="black" stroke-width="1.5" stroke-linecap="round" stroke-linejoin="round"/>
    <path d="M1.5769 11.44L11.7669 1.24999C11.9055 1.1097 12.0705 0.998316 12.2525 0.922295C12.4345 0.846274 12.6297 0.807129 12.8269 0.807129C13.0241 0.807129 13.2193 0.846274 13.4013 0.922295C13.5833 0.998316 13.7483 1.1097 13.8869 1.24999L24.0769 11.44" stroke="black" stroke-width="1.5" stroke-linecap="round" stroke-linejoin="round"/>
    <path d="M17.3269 4.69002V1.77002H21.0769V8.44002" stroke="black" stroke-width="1.5" stroke-linecap="round" stroke-linejoin="round"/>
</svg>
