<svg width="17" height="20" viewBox="0 0 17 20" fill="none" xmlns="http://www.w3.org/2000/svg">
    <path d="M16.1491 14.0943C14.8892 13.0292 14.1667 11.4725 14.1667 9.82332V7.5C14.1667 4.56758 11.9884 2.14004 9.16672 1.7334V0.833281C9.16672 0.372461 8.79332 0 8.33328 0C7.8734 0 7.5 0.372461 7.5 0.833281V1.7334C4.67742 2.14004 2.5 4.56758 2.5 7.5V9.82332C2.5 11.4725 1.7775 13.0292 0.509961 14.1008C0.349953 14.2375 0.221503 14.4074 0.133464 14.5986C0.045425 14.7898 -0.000109074 14.9978 1.96202e-07 15.2083C1.96202e-07 16.0126 0.654141 16.6667 1.45828 16.6667H15.2083C16.0126 16.6667 16.6667 16.0126 16.6667 15.2083C16.6667 14.7816 16.4809 14.3784 16.1491 14.0943ZM8.33328 20C9.84254 20 11.105 18.9241 11.395 17.5H5.2716C5.56168 18.9241 6.82418 20 8.33328 20Z" fill="#7C7979"/>
</svg>
