<svg width="25" height="25" viewBox="0 0 25 25" fill="none" xmlns="http://www.w3.org/2000/svg">
    <g clip-path="url(#clip0_1308_4837)">
        <path d="M3.00305 1H22.5031C22.5031 1 24.0031 1 24.0031 2.5V22C24.0031 22 24.0031 23.5 22.5031 23.5H3.00305C3.00305 23.5 1.50305 23.5 1.50305 22V2.5C1.50305 2.5 1.50305 1 3.00305 1Z" stroke="black" stroke-width="1.5" stroke-linecap="round" stroke-linejoin="round"/>
        <path d="M14.2531 7.75C14.2531 8.54565 14.5691 9.30871 15.1317 9.87132C15.6943 10.4339 16.4574 10.75 17.2531 10.75C18.0487 10.75 18.8118 10.4339 19.3744 9.87132C19.937 9.30871 20.2531 8.54565 20.2531 7.75C20.2531 6.95435 19.937 6.19129 19.3744 5.62868C18.8118 5.06607 18.0487 4.75 17.2531 4.75C16.4574 4.75 15.6943 5.06607 15.1317 5.62868C14.5691 6.19129 14.2531 6.95435 14.2531 7.75Z" stroke="black" stroke-width="1.5" stroke-linecap="round" stroke-linejoin="round"/>
        <path d="M4.71411 15.209C5.73719 14.6259 6.87391 14.2702 8.04686 14.1661C9.21981 14.062 10.4014 14.2119 11.5112 14.6057C12.621 14.9994 13.6328 15.6277 14.4779 16.4478C15.3229 17.2679 15.9813 18.2605 16.4081 19.358" stroke="black" stroke-width="1.5" stroke-linecap="round" stroke-linejoin="round"/>
        <path d="M15.135 17.1681C15.9303 16.4432 16.9613 16.0311 18.0371 16.0081C19.1129 15.9851 20.1605 16.3528 20.986 17.0431" stroke="black" stroke-width="1.5" stroke-linecap="round" stroke-linejoin="round"/>
    </g>
    <defs>
        <clipPath id="clip0_1308_4837">
            <rect width="24" height="24" fill="white" transform="translate(0.753052 0.25)"/>
        </clipPath>
    </defs>
</svg>
