<svg width="24" height="25" viewBox="0 0 24 25" fill="none" xmlns="http://www.w3.org/2000/svg">
    <g clip-path="url(#clip0_1315_4098)">
        <path d="M19.049 7.37879H4.936C4.5971 7.36497 4.26471 7.47465 4.00059 7.68745C3.73647 7.90026 3.55859 8.20171 3.5 8.53579L1.5 22.4508C1.48964 22.6418 1.51979 22.8329 1.58846 23.0114C1.65714 23.19 1.76279 23.352 1.89848 23.4868C2.03418 23.6217 2.19685 23.7263 2.37583 23.7938C2.55481 23.8614 2.74605 23.8903 2.937 23.8788H21.048C21.2389 23.8904 21.4301 23.8614 21.609 23.7939C21.788 23.7263 21.9506 23.6216 22.0862 23.4868C22.2218 23.3519 22.3274 23.1899 22.3959 23.0113C22.4645 22.8328 22.4945 22.6418 22.484 22.4508L20.484 8.53579C20.4254 8.20188 20.2477 7.90057 19.9838 7.68779C19.7199 7.47501 19.3877 7.36522 19.049 7.37879Z" stroke="black" stroke-width="1.5" stroke-linecap="round" stroke-linejoin="round"/>
        <path d="M15.662 4.43578C15.4977 3.57771 15.0401 2.80347 14.3677 2.24575C13.6952 1.68803 12.8497 1.38153 11.976 1.37878C11.1067 1.3826 10.2654 1.6873 9.59531 2.24112C8.92519 2.79494 8.46749 3.56371 8.3 4.41678" stroke="black" stroke-width="1.5" stroke-linecap="round" stroke-linejoin="round"/>
        <path d="M14.992 16.3788L11.992 19.3788L8.992 16.3788" stroke="black" stroke-width="1.5" stroke-linecap="round" stroke-linejoin="round"/>
        <path d="M11.992 19.3788V11.8788" stroke="black" stroke-width="1.5" stroke-linecap="round" stroke-linejoin="round"/>
    </g>
    <defs>
        <clipPath id="clip0_1315_4098">
            <rect width="24" height="24" fill="white" transform="translate(0 0.628784)"/>
        </clipPath>
    </defs>
</svg>
