<svg width="24" height="25" viewBox="0 0 24 25" fill="none" xmlns="http://www.w3.org/2000/svg">
    <g clip-path="url(#clip0_1315_4799)">
        <path d="M13.498 22.5C15.4264 22.5 17.3115 21.9282 18.9149 20.8568C20.5182 19.7855 21.7679 18.2627 22.5059 16.4812C23.2438 14.6996 23.4369 12.7392 23.0607 10.8479C22.6845 8.95656 21.7559 7.21928 20.3923 5.85571C19.0288 4.49215 17.2915 3.56355 15.4002 3.18735C13.5089 2.81114 11.5485 3.00422 9.76688 3.74218C7.9853 4.48013 6.46256 5.72982 5.39122 7.33319C4.31987 8.93657 3.74805 10.8216 3.74805 12.75V13.5" stroke="black" stroke-width="1.5" stroke-linecap="round" stroke-linejoin="round"/>
        <path d="M0.748047 10.5L3.74805 13.5L6.74805 10.5" stroke="black" stroke-width="1.5" stroke-linecap="round" stroke-linejoin="round"/>
        <path d="M18.332 17.25C17.549 16.914 16.603 16.574 15.554 16.185C14.902 15.944 15.009 14.242 15.298 13.924C15.7577 13.4255 16.1068 12.8356 16.3226 12.1928C16.5384 11.55 16.6159 10.8688 16.55 10.194C16.5914 9.76426 16.5438 9.33062 16.4102 8.92009C16.2765 8.50957 16.0598 8.13095 15.7735 7.80785C15.4872 7.48474 15.1374 7.22407 14.7459 7.04207C14.3544 6.86007 13.9296 6.76065 13.498 6.75C13.0665 6.76065 12.6417 6.86007 12.2502 7.04207C11.8587 7.22407 11.5089 7.48474 11.2226 7.80785C10.9363 8.13095 10.7195 8.50957 10.5859 8.92009C10.4523 9.33062 10.4047 9.76426 10.446 10.194C10.3802 10.8688 10.4577 11.55 10.6735 12.1928C10.8893 12.8356 11.2384 13.4255 11.698 13.924C11.987 14.242 12.098 15.944 11.442 16.185C10.393 16.574 9.44205 16.914 8.66405 17.25" stroke="black" stroke-width="1.5" stroke-linecap="round" stroke-linejoin="round"/>
    </g>
    <defs>
        <clipPath id="clip0_1315_4799">
            <rect width="24" height="24" fill="white" transform="translate(-0.00195312 0.75)"/>
        </clipPath>
    </defs>
</svg>
